<svg width="827" height="179" viewBox="0 0 827 179" fill="none" xmlns="http://www.w3.org/2000/svg">
<g filter="url(#filter0_d_23_132)">
<path d="M46.33 50.53C47.63 50.53 48.7567 50.8333 49.71 51.44C50.6633 52.0467 51.14 53.0433 51.14 54.43V119.04C51.14 127.88 48.9733 134.423 44.64 138.67C40.3933 142.83 34.1967 144.91 26.05 144.91C22.41 144.91 18.9433 144.433 15.65 143.48C12.3567 142.527 9.49667 141.227 7.07 139.58C6.03 138.887 5.42333 137.977 5.25 136.85C5.07667 135.723 5.33667 134.597 6.03 133.47C6.72333 132.43 7.54667 131.737 8.5 131.39C9.45333 131.043 10.5367 131.217 11.75 131.91C13.83 133.21 15.9967 134.25 18.25 135.03C20.59 135.723 23.1467 136.07 25.92 136.07C31.2933 136.07 35.2367 134.597 37.75 131.65C40.35 128.703 41.65 123.937 41.65 117.35V54.43C41.65 53.0433 42.1267 52.0467 43.08 51.44C44.0333 50.8333 45.1167 50.53 46.33 50.53Z" fill="white"/>
<path d="M49.71 51.44L49.1731 52.2837L49.1731 52.2837L49.71 51.44ZM44.64 138.67L45.3398 139.384L45.3399 139.384L44.64 138.67ZM15.65 143.48L15.3719 144.441L15.65 143.48ZM7.07 139.58L7.63152 138.752L7.6247 138.748L7.07 139.58ZM5.25 136.85L4.26163 137.002L4.26163 137.002L5.25 136.85ZM6.03 133.47L5.19795 132.915L5.18787 132.93L5.17834 132.946L6.03 133.47ZM8.5 131.39L8.15826 130.45L8.15826 130.45L8.5 131.39ZM11.75 131.91L12.28 131.062L12.2633 131.052L12.2461 131.042L11.75 131.91ZM18.25 135.03L17.9229 135.975L17.9442 135.982L17.9659 135.989L18.25 135.03ZM37.75 131.65L37.0002 130.988L36.9946 130.995L36.9892 131.001L37.75 131.65ZM43.08 51.44L43.6169 52.2837L43.6169 52.2837L43.08 51.44ZM46.33 51.53C47.4691 51.53 48.4033 51.7938 49.1731 52.2837L50.2469 50.5963C49.1101 49.8729 47.7909 49.53 46.33 49.53V51.53ZM49.1731 52.2837C49.7699 52.6634 50.14 53.2959 50.14 54.43H52.14C52.14 52.7908 51.5567 51.4299 50.2469 50.5963L49.1731 52.2837ZM50.14 54.43V119.04H52.14V54.43H50.14ZM50.14 119.04C50.14 127.734 48.0085 133.969 43.9401 137.956L45.3399 139.384C49.9382 134.878 52.14 128.026 52.14 119.04H50.14ZM43.9402 137.956C39.9408 141.873 34.0338 143.91 26.05 143.91V145.91C34.3595 145.91 40.8458 143.787 45.3398 139.384L43.9402 137.956ZM26.05 143.91C22.4983 143.91 19.1256 143.445 15.9281 142.519L15.3719 144.441C18.7611 145.422 22.3217 145.91 26.05 145.91V143.91ZM15.9281 142.519C12.719 141.59 9.958 140.331 7.6315 138.753L6.5085 140.407C9.03534 142.122 11.9944 143.463 15.3719 144.441L15.9281 142.519ZM7.6247 138.748C6.79315 138.194 6.36462 137.519 6.23837 136.698L4.26163 137.002C4.48204 138.435 5.26685 139.58 6.5153 140.412L7.6247 138.748ZM6.23837 136.698C6.10679 135.843 6.29158 134.953 6.88166 133.994L5.17834 132.946C4.38175 134.24 4.04655 135.604 4.26163 137.002L6.23837 136.698ZM6.86205 134.025C7.46509 133.12 8.13134 132.588 8.84174 132.33L8.15826 130.45C6.96199 130.885 5.98158 131.74 5.19795 132.915L6.86205 134.025ZM8.84174 132.33C9.42551 132.118 10.1947 132.173 11.2539 132.778L12.2461 131.042C10.8787 130.26 9.48116 129.969 8.15826 130.45L8.84174 132.33ZM11.22 132.758C13.3619 134.097 15.5965 135.17 17.9229 135.975L18.5771 134.085C16.3969 133.33 14.2981 132.323 12.28 131.062L11.22 132.758ZM17.9659 135.989C20.4097 136.713 23.0634 137.07 25.92 137.07V135.07C23.23 135.07 20.7703 134.734 18.5341 134.071L17.9659 135.989ZM25.92 137.07C31.4676 137.07 35.7421 135.545 38.5108 132.299L36.9892 131.001C34.7312 133.648 31.1191 135.07 25.92 135.07V137.07ZM38.4998 132.312C41.3394 129.093 42.65 124.028 42.65 117.35H40.65C40.65 123.846 39.3606 128.313 37.0002 130.988L38.4998 132.312ZM42.65 117.35V54.43H40.65V117.35H42.65ZM42.65 54.43C42.65 53.2959 43.0201 52.6634 43.6169 52.2837L42.5431 50.5963C41.2333 51.4299 40.65 52.7908 40.65 54.43H42.65ZM43.6169 52.2837C44.3978 51.7867 45.2922 51.53 46.33 51.53V49.53C44.9411 49.53 43.6688 49.88 42.5431 50.5963L43.6169 52.2837Z" fill="white"/>
<path d="M118.78 51.05C119.993 51.05 120.86 51.44 121.38 52.22C121.9 53 122.16 53.9967 122.16 55.21C122.16 56.3367 121.9 57.29 121.38 58.07C120.86 58.85 119.993 59.24 118.78 59.24H74.45V92H116.18C117.307 92 118.13 92.39 118.65 93.17C119.17 93.95 119.43 94.9033 119.43 96.03C119.43 97.1567 119.17 98.11 118.65 98.89C118.13 99.67 117.307 100.06 116.18 100.06H74.45V135.29H119.69C120.903 135.29 121.77 135.68 122.29 136.46C122.81 137.24 123.07 138.193 123.07 139.32C123.07 140.533 122.81 141.53 122.29 142.31C121.77 143.09 120.903 143.48 119.69 143.48H73.67C70.3767 143.48 68.08 142.873 66.78 141.66C65.5667 140.447 64.96 138.193 64.96 134.9V59.63C64.96 56.3367 65.5667 54.0833 66.78 52.87C68.08 51.6567 70.3767 51.05 73.67 51.05H118.78Z" fill="white"/>
<path d="M74.45 59.24V58.24H73.45V59.24H74.45ZM74.45 92H73.45V93H74.45V92ZM118.65 93.17L117.818 93.7247L117.818 93.7247L118.65 93.17ZM118.65 98.89L117.818 98.3353L117.818 98.3353L118.65 98.89ZM74.45 100.06V99.06H73.45V100.06H74.45ZM74.45 135.29H73.45V136.29H74.45V135.29ZM122.29 136.46L123.122 135.905L123.122 135.905L122.29 136.46ZM122.29 142.31L123.122 142.865L123.122 142.865L122.29 142.31ZM66.78 141.66L66.0729 142.367L66.0851 142.379L66.0977 142.391L66.78 141.66ZM66.78 52.87L66.0977 52.1389L66.0851 52.1507L66.0729 52.1629L66.78 52.87ZM118.78 52.05C119.769 52.05 120.267 52.3536 120.548 52.7747L122.212 51.6653C121.453 50.5264 120.217 50.05 118.78 50.05V52.05ZM120.548 52.7747C120.93 53.3483 121.16 54.1366 121.16 55.21H123.16C123.16 53.8568 122.87 52.6517 122.212 51.6653L120.548 52.7747ZM121.16 55.21C121.16 56.1797 120.938 56.9303 120.548 57.5153L122.212 58.6247C122.862 57.6497 123.16 56.4937 123.16 55.21H121.16ZM120.548 57.5153C120.267 57.9364 119.769 58.24 118.78 58.24V60.24C120.217 60.24 121.453 59.7636 122.212 58.6247L120.548 57.5153ZM118.78 58.24H74.45V60.24H118.78V58.24ZM73.45 59.24V92H75.45V59.24H73.45ZM74.45 93H116.18V91H74.45V93ZM116.18 93C117.05 93 117.523 93.2817 117.818 93.7247L119.482 92.6153C118.737 91.4983 117.564 91 116.18 91V93ZM117.818 93.7247C118.208 94.3097 118.43 95.0603 118.43 96.03H120.43C120.43 94.7463 120.132 93.5902 119.482 92.6153L117.818 93.7247ZM118.43 96.03C118.43 96.9997 118.208 97.7503 117.818 98.3353L119.482 99.4447C120.132 98.4697 120.43 97.3137 120.43 96.03H118.43ZM117.818 98.3353C117.523 98.7783 117.05 99.06 116.18 99.06V101.06C117.564 101.06 118.737 100.562 119.482 99.4447L117.818 98.3353ZM116.18 99.06H74.45V101.06H116.18V99.06ZM73.45 100.06V135.29H75.45V100.06H73.45ZM74.45 136.29H119.69V134.29H74.45V136.29ZM119.69 136.29C120.679 136.29 121.177 136.594 121.458 137.015L123.122 135.905C122.363 134.766 121.127 134.29 119.69 134.29V136.29ZM121.458 137.015C121.848 137.6 122.07 138.35 122.07 139.32H124.07C124.07 138.036 123.772 136.88 123.122 135.905L121.458 137.015ZM122.07 139.32C122.07 140.393 121.84 141.182 121.458 141.755L123.122 142.865C123.78 141.878 124.07 140.673 124.07 139.32H122.07ZM121.458 141.755C121.177 142.176 120.679 142.48 119.69 142.48V144.48C121.127 144.48 122.363 144.004 123.122 142.865L121.458 141.755ZM119.69 142.48H73.67V144.48H119.69V142.48ZM73.67 142.48C70.4374 142.48 68.4729 141.872 67.4623 140.929L66.0977 142.391C67.6871 143.875 70.3159 144.48 73.67 144.48V142.48ZM67.4871 140.953C66.5726 140.038 65.96 138.144 65.96 134.9H63.96C63.96 138.243 64.5607 140.855 66.0729 142.367L67.4871 140.953ZM65.96 134.9V59.63H63.96V134.9H65.96ZM65.96 59.63C65.96 56.3859 66.5726 54.4916 67.4871 53.5771L66.0729 52.1629C64.5607 53.6751 63.96 56.2874 63.96 59.63H65.96ZM67.4623 53.6011C68.4729 52.6579 70.4374 52.05 73.67 52.05V50.05C70.3159 50.05 67.6871 50.6554 66.0977 52.1389L67.4623 53.6011ZM73.67 52.05H118.78V50.05H73.67V52.05Z" fill="white"/>
<path d="M202.49 50.53C203.703 50.53 204.743 50.8333 205.61 51.44C206.563 52.0467 207.04 53 207.04 54.3V135.42C207.04 138.453 206.477 140.577 205.35 141.79C204.223 143.003 202.447 143.61 200.02 143.61C199.153 143.61 198.373 143.523 197.68 143.35C196.987 143.177 196.293 142.873 195.6 142.44C194.993 142.007 194.343 141.357 193.65 140.49C193.043 139.623 192.35 138.453 191.57 136.98L153.48 72.24C152.613 70.7667 151.79 69.2067 151.01 67.56C150.23 65.9133 149.537 64.18 148.93 62.36V140.23C148.93 141.53 148.453 142.483 147.5 143.09C146.633 143.697 145.593 144 144.38 144C143.253 144 142.213 143.697 141.26 143.09C140.393 142.483 139.96 141.53 139.96 140.23V59.11C139.96 56.0767 140.523 53.9533 141.65 52.74C142.777 51.5267 144.553 50.92 146.98 50.92C147.847 50.92 148.627 51.0067 149.32 51.18C150.013 51.3533 150.663 51.6567 151.27 52.09C151.877 52.5233 152.483 53.2167 153.09 54.17C153.783 55.0367 154.563 56.1633 155.43 57.55L193.52 122.29C195.253 125.237 196.77 128.53 198.07 132.17V54.3C198.07 53 198.503 52.0467 199.37 51.44C200.323 50.8333 201.363 50.53 202.49 50.53Z" fill="white"/>
<path d="M205.61 51.44L205.037 52.2592L205.055 52.2718L205.073 52.2837L205.61 51.44ZM205.35 141.79L204.617 141.11L205.35 141.79ZM197.68 143.35L197.923 142.38L197.923 142.38L197.68 143.35ZM195.6 142.44L195.019 143.254L195.044 143.272L195.07 143.288L195.6 142.44ZM193.65 140.49L192.831 141.063L192.849 141.09L192.869 141.115L193.65 140.49ZM191.57 136.98L192.454 136.512L192.443 136.492L192.432 136.473L191.57 136.98ZM153.48 72.24L152.618 72.747L152.618 72.7471L153.48 72.24ZM151.01 67.56L150.106 67.9881L150.106 67.9881L151.01 67.56ZM148.93 62.36L149.879 62.0438L147.93 62.36H148.93ZM147.5 143.09L146.963 142.246L146.945 142.258L146.927 142.271L147.5 143.09ZM141.26 143.09L140.687 143.909L140.705 143.922L140.723 143.934L141.26 143.09ZM141.65 52.74L140.917 52.0595L140.917 52.0595L141.65 52.74ZM149.32 51.18L149.563 50.2099L149.563 50.2099L149.32 51.18ZM153.09 54.17L152.246 54.7069L152.275 54.7525L152.309 54.7947L153.09 54.17ZM155.43 57.55L156.292 57.0429L156.285 57.0314L156.278 57.02L155.43 57.55ZM193.52 122.29L194.382 121.783L194.382 121.783L193.52 122.29ZM198.07 132.17L197.128 132.506L199.07 132.17H198.07ZM199.37 51.44L198.833 50.5963L198.815 50.6081L198.797 50.6208L199.37 51.44ZM202.49 51.53C203.529 51.53 204.362 51.7869 205.037 52.2592L206.183 50.6208C205.125 49.8797 203.877 49.53 202.49 49.53V51.53ZM205.073 52.2837C205.69 52.6765 206.04 53.2815 206.04 54.3H208.04C208.04 52.7185 207.436 51.4168 206.147 50.5963L205.073 52.2837ZM206.04 54.3V135.42H208.04V54.3H206.04ZM206.04 135.42C206.04 138.389 205.477 140.184 204.617 141.11L206.083 142.47C207.477 140.969 208.04 138.518 208.04 135.42H206.04ZM204.617 141.11C203.753 142.04 202.299 142.61 200.02 142.61V144.61C202.594 144.61 204.693 143.967 206.083 142.47L204.617 141.11ZM200.02 142.61C199.218 142.61 198.522 142.53 197.923 142.38L197.437 144.32C198.225 144.517 199.088 144.61 200.02 144.61V142.61ZM197.923 142.38C197.344 142.235 196.747 141.978 196.13 141.592L195.07 143.288C195.84 143.769 196.629 144.118 197.437 144.32L197.923 142.38ZM196.181 141.626C195.676 141.266 195.092 140.692 194.431 139.865L192.869 141.115C193.595 142.022 194.31 142.748 195.019 143.254L196.181 141.626ZM194.469 139.917C193.896 139.097 193.224 137.967 192.454 136.512L190.686 137.448C191.476 138.94 192.191 140.149 192.831 141.063L194.469 139.917ZM192.432 136.473L154.342 71.7329L152.618 72.7471L190.708 137.487L192.432 136.473ZM154.342 71.733C153.491 70.2869 152.682 68.7534 151.914 67.1319L150.106 67.9881C150.898 69.6599 151.735 71.2464 152.618 72.747L154.342 71.733ZM151.914 67.1319C151.152 65.5234 150.473 63.8276 149.879 62.0438L147.981 62.6762C148.6 64.5324 149.308 66.3032 150.106 67.9881L151.914 67.1319ZM147.93 62.36V140.23H149.93V62.36H147.93ZM147.93 140.23C147.93 141.249 147.58 141.853 146.963 142.246L148.037 143.934C149.326 143.113 149.93 141.811 149.93 140.23H147.93ZM146.927 142.271C146.252 142.743 145.419 143 144.38 143V145C145.767 145 147.015 144.65 148.073 143.909L146.927 142.271ZM144.38 143C143.444 143 142.59 142.751 141.797 142.246L140.723 143.934C141.836 144.642 143.063 145 144.38 145V143ZM141.833 142.271C141.296 141.895 140.96 141.288 140.96 140.23H138.96C138.96 141.772 139.49 143.072 140.687 143.909L141.833 142.271ZM140.96 140.23V59.11H138.96V140.23H140.96ZM140.96 59.11C140.96 56.1409 141.523 54.3461 142.383 53.4204L140.917 52.0595C139.523 53.5605 138.96 56.0125 138.96 59.11H140.96ZM142.383 53.4204C143.247 52.4901 144.701 51.92 146.98 51.92V49.92C144.406 49.92 142.307 50.5632 140.917 52.0595L142.383 53.4204ZM146.98 51.92C147.782 51.92 148.478 52.0003 149.077 52.1501L149.563 50.2099C148.775 50.013 147.912 49.92 146.98 49.92V51.92ZM149.077 52.1501C149.644 52.2917 150.18 52.5401 150.689 52.9037L151.851 51.2763C151.147 50.7732 150.383 50.4149 149.563 50.2099L149.077 52.1501ZM150.689 52.9037C151.152 53.2343 151.677 53.8115 152.246 54.7069L153.934 53.6331C153.29 52.6218 152.602 51.8124 151.851 51.2763L150.689 52.9037ZM152.309 54.7947C152.97 55.6206 153.727 56.7124 154.582 58.08L156.278 57.02C155.399 55.6143 154.597 54.4527 153.871 53.5453L152.309 54.7947ZM154.568 58.0571L192.658 122.797L194.382 121.783L156.292 57.0429L154.568 58.0571ZM192.658 122.797C194.356 125.683 195.847 128.918 197.128 132.506L199.012 131.834C197.693 128.142 196.151 124.79 194.382 121.783L192.658 122.797ZM199.07 132.17V54.3H197.07V132.17H199.07ZM199.07 54.3C199.07 53.2419 199.406 52.6351 199.943 52.2592L198.797 50.6208C197.6 51.4582 197.07 52.758 197.07 54.3H199.07ZM199.907 52.2837C200.7 51.7788 201.554 51.53 202.49 51.53V49.53C201.173 49.53 199.946 49.8879 198.833 50.5963L199.907 52.2837Z" fill="white"/>
<path d="M261.06 49.62C267.04 49.62 272.197 50.27 276.53 51.57C280.95 52.7833 284.763 54.43 287.97 56.51C289.183 57.29 289.833 58.2433 289.92 59.37C290.093 60.4967 289.833 61.6233 289.14 62.75C287.58 65.0033 285.673 65.4367 283.42 64.05C280.387 62.23 277.137 60.8433 273.67 59.89C270.29 58.85 266.087 58.33 261.06 58.33C250.833 58.33 243.423 61.32 238.83 67.3C234.237 73.1933 231.94 82.3367 231.94 94.73V99.8C231.94 112.193 234.237 121.38 238.83 127.36C243.423 133.253 250.92 136.2 261.32 136.2C270.42 136.2 277.743 134.597 283.29 131.39V102.27H262.75C261.537 102.27 260.67 101.88 260.15 101.1C259.63 100.32 259.37 99.3233 259.37 98.11C259.37 96.9833 259.63 96.03 260.15 95.25C260.67 94.3833 261.537 93.95 262.75 93.95H283.68C287.06 93.95 289.4 94.6 290.7 95.9C292 97.1133 292.65 99.3667 292.65 102.66V130.22C292.65 132.733 292.217 134.727 291.35 136.2C290.57 137.587 289.14 138.757 287.06 139.71C284.113 141.183 280.473 142.44 276.14 143.48C271.807 144.433 266.78 144.91 261.06 144.91C235.233 144.91 222.32 130.22 222.32 100.84V93.69C222.32 78.87 225.483 67.82 231.81 60.54C238.137 53.26 247.887 49.62 261.06 49.62Z" fill="white"/>
<path d="M276.53 51.57L276.243 52.5278L276.254 52.5312L276.265 52.5343L276.53 51.57ZM287.97 56.51L287.426 57.349L287.429 57.3512L287.97 56.51ZM289.92 59.37L288.923 59.4467L288.926 59.4845L288.932 59.5221L289.92 59.37ZM289.14 62.75L289.962 63.3192L289.978 63.2971L289.992 63.2741L289.14 62.75ZM283.42 64.05L283.944 63.1983L283.935 63.1925L283.42 64.05ZM273.67 59.89L273.376 60.8458L273.39 60.8502L273.405 60.8542L273.67 59.89ZM238.83 67.3L239.619 67.9148L239.623 67.9092L238.83 67.3ZM238.83 127.36L238.037 127.969L238.041 127.975L238.83 127.36ZM283.29 131.39L283.791 132.256L284.29 131.967V131.39H283.29ZM283.29 102.27H284.29V101.27H283.29V102.27ZM260.15 95.25L260.982 95.8047L260.995 95.7849L261.007 95.7645L260.15 95.25ZM290.7 95.9L289.993 96.6071L290.005 96.6193L290.018 96.6311L290.7 95.9ZM291.35 136.2L290.488 135.693L290.483 135.701L290.478 135.71L291.35 136.2ZM287.06 139.71L286.643 138.801L286.628 138.808L286.613 138.816L287.06 139.71ZM276.14 143.48L276.355 144.457L276.364 144.455L276.373 144.452L276.14 143.48ZM231.81 60.54L232.565 61.196L232.565 61.196L231.81 60.54ZM261.06 50.62C266.972 50.62 272.027 51.2631 276.243 52.5278L276.817 50.6122C272.366 49.2769 267.108 48.62 261.06 48.62V50.62ZM276.265 52.5343C280.605 53.7257 284.32 55.3347 287.426 57.349L288.514 55.671C285.206 53.5253 281.295 51.841 276.795 50.6057L276.265 52.5343ZM287.429 57.3512C288.459 58.0133 288.867 58.7163 288.923 59.4467L290.917 59.2933C290.8 57.7704 289.907 56.5667 288.511 55.6688L287.429 57.3512ZM288.932 59.5221C289.063 60.3774 288.878 61.267 288.288 62.2259L289.992 63.2741C290.788 61.9796 291.123 60.616 290.908 59.2179L288.932 59.5221ZM288.318 62.1808C287.623 63.1845 286.945 63.6475 286.318 63.7899C285.7 63.9305 284.929 63.8042 283.944 63.1983L282.896 64.9017C284.165 65.6825 285.474 66.0328 286.762 65.7401C288.042 65.4492 289.097 64.5688 289.962 63.3192L288.318 62.1808ZM283.935 63.1925C280.822 61.325 277.488 59.9028 273.935 58.9258L273.405 60.8542C276.785 61.7839 279.951 63.135 282.906 64.9075L283.935 63.1925ZM273.964 58.9342C270.458 57.8554 266.148 57.33 261.06 57.33V59.33C266.025 59.33 270.122 59.8446 273.376 60.8458L273.964 58.9342ZM261.06 57.33C250.641 57.33 242.882 60.3834 238.037 66.6908L239.623 67.9092C243.965 62.2565 251.025 59.33 261.06 59.33V57.33ZM238.041 66.6853C233.247 72.8369 230.94 82.2483 230.94 94.73H232.94C232.94 82.425 235.227 73.5497 239.619 67.9147L238.041 66.6853ZM230.94 94.73V99.8H232.94V94.73H230.94ZM230.94 99.8C230.94 112.283 233.247 121.734 238.037 127.969L239.623 126.751C235.226 121.026 232.94 112.103 232.94 99.8H230.94ZM238.041 127.975C242.891 134.197 250.74 137.2 261.32 137.2V135.2C251.1 135.2 243.956 132.31 239.619 126.745L238.041 127.975ZM261.32 137.2C270.526 137.2 278.041 135.58 283.791 132.256L282.79 130.524C277.446 133.614 270.314 135.2 261.32 135.2V137.2ZM284.29 131.39V102.27H282.29V131.39H284.29ZM283.29 101.27H262.75V103.27H283.29V101.27ZM262.75 101.27C261.761 101.27 261.263 100.966 260.982 100.545L259.318 101.655C260.077 102.794 261.313 103.27 262.75 103.27V101.27ZM260.982 100.545C260.6 99.9717 260.37 99.1834 260.37 98.11H258.37C258.37 99.4632 258.66 100.668 259.318 101.655L260.982 100.545ZM260.37 98.11C260.37 97.1403 260.592 96.3897 260.982 95.8047L259.318 94.6953C258.668 95.6703 258.37 96.8263 258.37 98.11H260.37ZM261.007 95.7645C261.308 95.2636 261.805 94.95 262.75 94.95V92.95C261.268 92.95 260.032 93.503 259.293 94.7355L261.007 95.7645ZM262.75 94.95H283.68V92.95H262.75V94.95ZM283.68 94.95C286.996 94.95 288.986 95.6003 289.993 96.6071L291.407 95.1929C289.814 93.5997 287.124 92.95 283.68 92.95V94.95ZM290.018 96.6311C290.999 97.5466 291.65 99.4289 291.65 102.66H293.65C293.65 99.3045 293.001 96.6801 291.382 95.1689L290.018 96.6311ZM291.65 102.66V130.22H293.65V102.66H291.65ZM291.65 130.22C291.65 132.633 291.232 134.429 290.488 135.693L292.212 136.707C293.202 135.024 293.65 132.833 293.65 130.22H291.65ZM290.478 135.71C289.839 136.847 288.612 137.899 286.643 138.801L287.477 140.619C289.668 139.615 291.302 138.326 292.222 136.69L290.478 135.71ZM286.613 138.816C283.753 140.245 280.19 141.48 275.907 142.508L276.373 144.452C280.757 143.4 284.473 142.121 287.507 140.604L286.613 138.816ZM275.925 142.503C271.679 143.437 266.727 143.91 261.06 143.91V145.91C266.833 145.91 271.934 145.429 276.355 144.457L275.925 142.503ZM261.06 143.91C248.337 143.91 238.967 140.297 232.756 133.232C226.524 126.142 223.32 115.405 223.32 100.84H221.32C221.32 115.655 224.573 126.953 231.254 134.553C237.957 142.178 247.957 145.91 261.06 145.91V143.91ZM223.32 100.84V93.69H221.32V100.84H223.32ZM223.32 93.69C223.32 78.987 226.462 68.2183 232.565 61.196L231.055 59.884C224.505 67.4217 221.32 78.753 221.32 93.69H223.32ZM232.565 61.196C238.639 54.2063 248.065 50.62 261.06 50.62V48.62C247.708 48.62 237.634 52.3137 231.055 59.884L232.565 61.196Z" fill="white"/>
<path d="M407.76 49.62C420.24 49.62 429.6 53.3467 435.84 60.8C442.08 68.1667 445.2 79.13 445.2 93.69V100.84C445.2 115.4 442.08 126.407 435.84 133.86C429.6 141.227 420.24 144.91 407.76 144.91C395.28 144.91 385.92 141.227 379.68 133.86C373.44 126.407 370.32 115.4 370.32 100.84V93.69C370.32 79.13 373.44 68.1667 379.68 60.8C385.92 53.3467 395.28 49.62 407.76 49.62ZM407.76 58.33C398.14 58.33 391.077 61.32 386.57 67.3C382.15 73.1933 379.94 82.3367 379.94 94.73V99.8C379.94 112.193 382.15 121.38 386.57 127.36C391.077 133.253 398.14 136.2 407.76 136.2C417.38 136.2 424.4 133.253 428.82 127.36C433.327 121.38 435.58 112.193 435.58 99.8V94.73C435.58 82.3367 433.327 73.1933 428.82 67.3C424.4 61.32 417.38 58.33 407.76 58.33Z" fill="white"/>
<path d="M435.84 60.8L435.073 61.4419L435.077 61.4463L435.84 60.8ZM435.84 133.86L436.603 134.506L436.607 134.502L435.84 133.86ZM379.68 133.86L378.913 134.502L378.917 134.506L379.68 133.86ZM379.68 60.8L380.443 61.4463L380.447 61.4419L379.68 60.8ZM386.57 67.3L385.771 66.6981L385.77 66.7L386.57 67.3ZM386.57 127.36L385.766 127.954L385.771 127.961L385.776 127.967L386.57 127.36ZM428.82 127.36L428.021 126.758L428.02 126.76L428.82 127.36ZM428.82 67.3L428.016 67.8944L428.021 67.901L428.026 67.9074L428.82 67.3ZM407.76 50.62C420.035 50.62 429.075 54.2769 435.073 61.4419L436.607 60.1581C430.125 52.4165 420.445 48.62 407.76 48.62V50.62ZM435.077 61.4463C441.103 68.5603 444.2 79.2509 444.2 93.69H446.2C446.2 79.0091 443.057 67.7731 436.603 60.1536L435.077 61.4463ZM444.2 93.69V100.84H446.2V93.69H444.2ZM444.2 100.84C444.2 115.278 441.103 126.015 435.073 133.218L436.607 134.502C443.057 126.798 446.2 115.522 446.2 100.84H444.2ZM435.077 133.214C429.079 140.294 420.038 143.91 407.76 143.91V145.91C420.442 145.91 430.121 142.159 436.603 134.506L435.077 133.214ZM407.76 143.91C395.482 143.91 386.441 140.294 380.443 133.214L378.917 134.506C385.399 142.159 395.078 145.91 407.76 145.91V143.91ZM380.447 133.218C374.417 126.015 371.32 115.278 371.32 100.84H369.32C369.32 115.522 372.463 126.798 378.913 134.502L380.447 133.218ZM371.32 100.84V93.69H369.32V100.84H371.32ZM371.32 93.69C371.32 79.2509 374.417 68.5603 380.443 61.4463L378.917 60.1536C372.463 67.7731 369.32 79.0091 369.32 93.69H371.32ZM380.447 61.4419C386.445 54.2769 395.485 50.62 407.76 50.62V48.62C395.075 48.62 385.395 52.4165 378.913 60.1581L380.447 61.4419ZM407.76 57.33C397.924 57.33 390.519 60.3982 385.771 66.6981L387.369 67.9018C391.634 62.2417 398.356 59.33 407.76 59.33V57.33ZM385.77 66.7C381.158 72.8494 378.94 82.2541 378.94 94.73H380.94C380.94 82.4192 383.142 73.5373 387.37 67.9L385.77 66.7ZM378.94 94.73V99.8H380.94V94.73H378.94ZM378.94 99.8C378.94 112.278 381.159 121.721 385.766 127.954L387.374 126.766C383.141 121.039 380.94 112.109 380.94 99.8H378.94ZM385.776 127.967C390.525 134.179 397.929 137.2 407.76 137.2V135.2C398.351 135.2 391.628 132.328 387.364 126.753L385.776 127.967ZM407.76 137.2C417.59 137.2 424.956 134.179 429.62 127.96L428.02 126.76C423.844 132.328 417.17 135.2 407.76 135.2V137.2ZM429.619 127.962C434.317 121.727 436.58 112.281 436.58 99.8H434.58C434.58 112.106 432.336 121.033 428.021 126.758L429.619 127.962ZM436.58 99.8V94.73H434.58V99.8H436.58ZM436.58 94.73C436.58 82.2513 434.318 72.8431 429.614 66.6925L428.026 67.9074C432.336 73.5435 434.58 82.4221 434.58 94.73H436.58ZM429.624 66.7056C424.962 60.3981 417.595 57.33 407.76 57.33V59.33C417.165 59.33 423.838 62.2419 428.016 67.8944L429.624 66.7056Z" fill="white"/>
<path d="M464.47 50.53C465.77 50.53 466.897 50.8333 467.85 51.44C468.89 52.0467 469.41 53.0433 469.41 54.43V106.3C469.41 116.613 471.317 124.153 475.13 128.92C478.943 133.687 485.14 136.07 493.72 136.07C502.3 136.07 508.497 133.687 512.31 128.92C516.123 124.153 518.03 116.613 518.03 106.3V54.43C518.03 53.0433 518.507 52.0467 519.46 51.44C520.5 50.8333 521.67 50.53 522.97 50.53C524.183 50.53 525.267 50.8333 526.22 51.44C527.173 52.0467 527.65 53.0433 527.65 54.43V106.17C527.65 113.103 526.957 119.04 525.57 123.98C524.183 128.833 522.06 132.82 519.2 135.94C516.427 139.06 512.917 141.357 508.67 142.83C504.423 144.217 499.44 144.91 493.72 144.91C488 144.91 483.017 144.217 478.77 142.83C474.523 141.357 470.97 139.06 468.11 135.94C465.337 132.82 463.257 128.833 461.87 123.98C460.483 119.04 459.79 113.103 459.79 106.17V54.43C459.79 53.0433 460.267 52.0467 461.22 51.44C462.173 50.8333 463.257 50.53 464.47 50.53Z" fill="white"/>
<path d="M467.85 51.44L467.313 52.2837L467.329 52.294L467.346 52.3038L467.85 51.44ZM475.13 128.92L474.349 129.545L475.13 128.92ZM512.31 128.92L513.091 129.545L512.31 128.92ZM519.46 51.44L518.956 50.5762L518.939 50.586L518.923 50.5963L519.46 51.44ZM526.22 51.44L525.683 52.2837L525.683 52.2837L526.22 51.44ZM525.57 123.98L526.532 124.255L526.533 124.25L525.57 123.98ZM519.2 135.94L518.463 135.264L518.458 135.27L518.453 135.276L519.2 135.94ZM508.67 142.83L508.98 143.781L508.989 143.778L508.998 143.775L508.67 142.83ZM478.77 142.83L478.442 143.775L478.451 143.778L478.46 143.781L478.77 142.83ZM468.11 135.94L467.363 136.604L467.368 136.61L467.373 136.616L468.11 135.94ZM461.87 123.98L460.907 124.25L460.908 124.255L461.87 123.98ZM461.22 51.44L461.757 52.2837L461.757 52.2837L461.22 51.44ZM464.47 51.53C465.609 51.53 466.543 51.7938 467.313 52.2837L468.387 50.5963C467.25 49.8729 465.931 49.53 464.47 49.53V51.53ZM467.346 52.3038C468.027 52.701 468.41 53.3346 468.41 54.43H470.41C470.41 52.7521 469.753 51.3923 468.354 50.5762L467.346 52.3038ZM468.41 54.43V106.3H470.41V54.43H468.41ZM468.41 106.3C468.41 116.698 470.325 124.515 474.349 129.545L475.911 128.295C472.308 123.792 470.41 116.529 470.41 106.3H468.41ZM474.349 129.545C478.421 134.634 484.966 137.07 493.72 137.07V135.07C485.314 135.07 479.466 132.739 475.911 128.295L474.349 129.545ZM493.72 137.07C502.474 137.07 509.019 134.634 513.091 129.545L511.529 128.295C507.974 132.739 502.126 135.07 493.72 135.07V137.07ZM513.091 129.545C517.115 124.515 519.03 116.698 519.03 106.3H517.03C517.03 116.529 515.132 123.792 511.529 128.295L513.091 129.545ZM519.03 106.3V54.43H517.03V106.3H519.03ZM519.03 54.43C519.03 53.2959 519.4 52.6634 519.997 52.2837L518.923 50.5963C517.613 51.4299 517.03 52.7908 517.03 54.43H519.03ZM519.964 52.3038C520.839 51.7934 521.832 51.53 522.97 51.53V49.53C521.508 49.53 520.161 49.8733 518.956 50.5762L519.964 52.3038ZM522.97 51.53C524.008 51.53 524.902 51.7867 525.683 52.2837L526.757 50.5963C525.631 49.88 524.359 49.53 522.97 49.53V51.53ZM525.683 52.2837C526.28 52.6634 526.65 53.2959 526.65 54.43H528.65C528.65 52.7908 528.067 51.4299 526.757 50.5963L525.683 52.2837ZM526.65 54.43V106.17H528.65V54.43H526.65ZM526.65 106.17C526.65 113.042 525.962 118.882 524.607 123.71L526.533 124.25C527.951 119.198 528.65 113.165 528.65 106.17H526.65ZM524.608 123.705C523.256 128.438 521.2 132.279 518.463 135.264L519.937 136.616C522.92 133.361 525.11 129.229 526.532 124.255L524.608 123.705ZM518.453 135.276C515.802 138.258 512.44 140.464 508.342 141.885L508.998 143.775C513.393 142.25 517.052 139.862 519.947 136.604L518.453 135.276ZM508.36 141.879C504.237 143.226 499.363 143.91 493.72 143.91V145.91C499.517 145.91 504.61 145.208 508.98 143.781L508.36 141.879ZM493.72 143.91C488.077 143.91 483.203 143.226 479.08 141.879L478.46 143.781C482.83 145.208 487.923 145.91 493.72 145.91V143.91ZM479.098 141.885C474.998 140.463 471.588 138.254 468.847 135.264L467.373 136.616C470.352 139.866 474.049 142.251 478.442 143.775L479.098 141.885ZM468.857 135.276C466.202 132.289 464.185 128.444 462.832 123.705L460.908 124.255C462.328 129.223 464.471 133.351 467.363 136.604L468.857 135.276ZM462.833 123.71C461.478 118.882 460.79 113.042 460.79 106.17H458.79C458.79 113.165 459.489 119.198 460.907 124.25L462.833 123.71ZM460.79 106.17V54.43H458.79V106.17H460.79ZM460.79 54.43C460.79 53.2959 461.16 52.6634 461.757 52.2837L460.683 50.5963C459.373 51.4299 458.79 52.7908 458.79 54.43H460.79ZM461.757 52.2837C462.538 51.7867 463.432 51.53 464.47 51.53V49.53C463.081 49.53 461.809 49.88 460.683 50.5963L461.757 52.2837Z" fill="white"/>
<path d="M660.06 49.62C666.04 49.62 671.197 50.27 675.53 51.57C679.95 52.7833 683.763 54.43 686.97 56.51C688.183 57.29 688.833 58.2433 688.92 59.37C689.093 60.4967 688.833 61.6233 688.14 62.75C686.58 65.0033 684.673 65.4367 682.42 64.05C679.387 62.23 676.137 60.8433 672.67 59.89C669.29 58.85 665.087 58.33 660.06 58.33C649.833 58.33 642.423 61.32 637.83 67.3C633.237 73.1933 630.94 82.3367 630.94 94.73V99.8C630.94 112.193 633.237 121.38 637.83 127.36C642.423 133.253 649.92 136.2 660.32 136.2C669.42 136.2 676.743 134.597 682.29 131.39V102.27H661.75C660.537 102.27 659.67 101.88 659.15 101.1C658.63 100.32 658.37 99.3233 658.37 98.11C658.37 96.9833 658.63 96.03 659.15 95.25C659.67 94.3833 660.537 93.95 661.75 93.95H682.68C686.06 93.95 688.4 94.6 689.7 95.9C691 97.1133 691.65 99.3667 691.65 102.66V130.22C691.65 132.733 691.217 134.727 690.35 136.2C689.57 137.587 688.14 138.757 686.06 139.71C683.113 141.183 679.473 142.44 675.14 143.48C670.807 144.433 665.78 144.91 660.06 144.91C634.233 144.91 621.32 130.22 621.32 100.84V93.69C621.32 78.87 624.483 67.82 630.81 60.54C637.137 53.26 646.887 49.62 660.06 49.62Z" fill="white"/>
<path d="M675.53 51.57L675.243 52.5278L675.254 52.5312L675.265 52.5343L675.53 51.57ZM686.97 56.51L686.426 57.349L686.429 57.3512L686.97 56.51ZM688.92 59.37L687.923 59.4467L687.926 59.4845L687.932 59.5221L688.92 59.37ZM688.14 62.75L688.962 63.3192L688.978 63.2971L688.992 63.2741L688.14 62.75ZM682.42 64.05L682.944 63.1983L682.935 63.1925L682.42 64.05ZM672.67 59.89L672.376 60.8458L672.39 60.8502L672.405 60.8542L672.67 59.89ZM637.83 67.3L638.619 67.9148L638.623 67.9092L637.83 67.3ZM637.83 127.36L637.037 127.969L637.041 127.975L637.83 127.36ZM682.29 131.39L682.791 132.256L683.29 131.967V131.39H682.29ZM682.29 102.27H683.29V101.27H682.29V102.27ZM659.15 95.25L659.982 95.8047L659.995 95.7849L660.007 95.7645L659.15 95.25ZM689.7 95.9L688.993 96.6071L689.005 96.6193L689.018 96.6311L689.7 95.9ZM690.35 136.2L689.488 135.693L689.483 135.701L689.478 135.71L690.35 136.2ZM686.06 139.71L685.643 138.801L685.628 138.808L685.613 138.816L686.06 139.71ZM675.14 143.48L675.355 144.457L675.364 144.455L675.373 144.452L675.14 143.48ZM630.81 60.54L631.565 61.196L631.565 61.196L630.81 60.54ZM660.06 50.62C665.972 50.62 671.027 51.2631 675.243 52.5278L675.817 50.6122C671.366 49.2769 666.108 48.62 660.06 48.62V50.62ZM675.265 52.5343C679.605 53.7257 683.32 55.3347 686.426 57.349L687.514 55.671C684.206 53.5253 680.295 51.841 675.795 50.6057L675.265 52.5343ZM686.429 57.3512C687.459 58.0133 687.867 58.7163 687.923 59.4467L689.917 59.2933C689.8 57.7704 688.907 56.5667 687.511 55.6688L686.429 57.3512ZM687.932 59.5221C688.063 60.3774 687.878 61.267 687.288 62.2259L688.992 63.2741C689.788 61.9796 690.123 60.616 689.908 59.2179L687.932 59.5221ZM687.318 62.1808C686.623 63.1845 685.945 63.6475 685.318 63.7899C684.7 63.9305 683.929 63.8042 682.944 63.1983L681.896 64.9017C683.165 65.6825 684.474 66.0328 685.762 65.7401C687.042 65.4492 688.097 64.5688 688.962 63.3192L687.318 62.1808ZM682.935 63.1925C679.822 61.325 676.488 59.9028 672.935 58.9258L672.405 60.8542C675.785 61.7839 678.951 63.135 681.906 64.9075L682.935 63.1925ZM672.964 58.9342C669.458 57.8554 665.148 57.33 660.06 57.33V59.33C665.025 59.33 669.122 59.8446 672.376 60.8458L672.964 58.9342ZM660.06 57.33C649.641 57.33 641.882 60.3834 637.037 66.6908L638.623 67.9092C642.965 62.2565 650.025 59.33 660.06 59.33V57.33ZM637.041 66.6853C632.247 72.8369 629.94 82.2483 629.94 94.73H631.94C631.94 82.425 634.227 73.5497 638.619 67.9147L637.041 66.6853ZM629.94 94.73V99.8H631.94V94.73H629.94ZM629.94 99.8C629.94 112.283 632.247 121.734 637.037 127.969L638.623 126.751C634.226 121.026 631.94 112.103 631.94 99.8H629.94ZM637.041 127.975C641.891 134.197 649.74 137.2 660.32 137.2V135.2C650.1 135.2 642.956 132.31 638.619 126.745L637.041 127.975ZM660.32 137.2C669.526 137.2 677.041 135.58 682.791 132.256L681.79 130.524C676.446 133.614 669.314 135.2 660.32 135.2V137.2ZM683.29 131.39V102.27H681.29V131.39H683.29ZM682.29 101.27H661.75V103.27H682.29V101.27ZM661.75 101.27C660.761 101.27 660.263 100.966 659.982 100.545L658.318 101.655C659.077 102.794 660.313 103.27 661.75 103.27V101.27ZM659.982 100.545C659.6 99.9717 659.37 99.1834 659.37 98.11H657.37C657.37 99.4632 657.66 100.668 658.318 101.655L659.982 100.545ZM659.37 98.11C659.37 97.1403 659.592 96.3897 659.982 95.8047L658.318 94.6953C657.668 95.6703 657.37 96.8263 657.37 98.11H659.37ZM660.007 95.7645C660.308 95.2636 660.805 94.95 661.75 94.95V92.95C660.268 92.95 659.032 93.503 658.293 94.7355L660.007 95.7645ZM661.75 94.95H682.68V92.95H661.75V94.95ZM682.68 94.95C685.996 94.95 687.986 95.6003 688.993 96.6071L690.407 95.1929C688.814 93.5997 686.124 92.95 682.68 92.95V94.95ZM689.018 96.6311C689.999 97.5466 690.65 99.4289 690.65 102.66H692.65C692.65 99.3045 692.001 96.6801 690.382 95.1689L689.018 96.6311ZM690.65 102.66V130.22H692.65V102.66H690.65ZM690.65 130.22C690.65 132.633 690.232 134.429 689.488 135.693L691.212 136.707C692.202 135.024 692.65 132.833 692.65 130.22H690.65ZM689.478 135.71C688.839 136.847 687.612 137.899 685.643 138.801L686.477 140.619C688.668 139.615 690.302 138.326 691.222 136.69L689.478 135.71ZM685.613 138.816C682.753 140.245 679.19 141.48 674.907 142.508L675.373 144.452C679.757 143.4 683.473 142.121 686.507 140.604L685.613 138.816ZM674.925 142.503C670.679 143.437 665.727 143.91 660.06 143.91V145.91C665.833 145.91 670.934 145.429 675.355 144.457L674.925 142.503ZM660.06 143.91C647.337 143.91 637.967 140.297 631.756 133.232C625.524 126.142 622.32 115.405 622.32 100.84H620.32C620.32 115.655 623.573 126.953 630.254 134.553C636.957 142.178 646.957 145.91 660.06 145.91V143.91ZM622.32 100.84V93.69H620.32V100.84H622.32ZM622.32 93.69C622.32 78.987 625.462 68.2183 631.565 61.196L630.055 59.884C623.505 67.4217 620.32 78.753 620.32 93.69H622.32ZM631.565 61.196C637.639 54.2063 647.065 50.62 660.06 50.62V48.62C646.708 48.62 636.634 52.3137 630.055 59.884L631.565 61.196Z" fill="white"/>
<path d="M725.586 54.84C726.745 53.9973 728.061 53.6813 729.536 53.892C731.116 53.9973 732.485 54.7873 733.644 56.262L755.764 86.914L777.568 56.262C778.727 54.7873 779.991 53.9973 781.36 53.892C782.835 53.6813 784.204 54.05 785.468 54.998C786.627 55.8407 787.364 56.894 787.68 58.158C787.996 59.422 787.627 60.7913 786.574 62.266L762.716 94.34L788.312 128.152C789.471 129.627 789.892 131.049 789.576 132.418C789.365 133.682 788.575 134.841 787.206 135.894C786.047 136.737 784.678 137.105 783.098 137C781.623 136.789 780.307 135.947 779.148 134.472L755.29 101.924L731.116 134.472C729.957 135.947 728.693 136.789 727.324 137C725.955 137.105 724.638 136.684 723.374 135.736C722.215 134.893 721.425 133.84 721.004 132.576C720.688 131.312 721.109 129.943 722.268 128.468L748.338 94.656L724.48 62.582C723.321 61.1073 722.9 59.738 723.216 58.474C723.532 57.1047 724.322 55.8933 725.586 54.84Z" fill="white"/>
<path d="M794.36 33.52C796.353 32.48 798.13 32.87 799.69 34.69C805.67 42.1433 810.177 50.7667 813.21 60.56C816.243 70.3533 817.76 80.7967 817.76 91.89V94.62C817.76 105.713 816.243 116.157 813.21 125.95C810.177 135.743 805.67 144.367 799.69 151.82C798.043 153.727 796.267 154.117 794.36 152.99C793.493 152.47 792.93 151.777 792.67 150.91C792.497 150.043 792.67 149.133 793.19 148.18C798.217 140.467 801.9 132.233 804.24 123.48C806.667 114.64 807.88 105.237 807.88 95.27V91.24C807.88 81.2733 806.667 71.9133 804.24 63.16C801.9 54.4067 798.217 46.1733 793.19 38.46C792.67 37.5067 792.497 36.5967 792.67 35.73C792.93 34.7767 793.493 34.04 794.36 33.52Z" fill="white"/>
<path d="M604.49 50.53C605.703 50.53 606.743 50.8333 607.61 51.44C608.563 52.0467 609.04 53 609.04 54.3V135.42C609.04 138.453 608.477 140.577 607.35 141.79C606.223 143.003 604.447 143.61 602.02 143.61C601.153 143.61 600.373 143.523 599.68 143.35C598.987 143.177 598.293 142.873 597.6 142.44C596.993 142.007 596.343 141.357 595.65 140.49C595.043 139.623 594.35 138.453 593.57 136.98L555.48 72.24C554.613 70.7667 553.79 69.2067 553.01 67.56C552.23 65.9133 551.537 64.18 550.93 62.36V140.23C550.93 141.53 550.453 142.483 549.5 143.09C548.633 143.697 547.593 144 546.38 144C545.253 144 544.213 143.697 543.26 143.09C542.393 142.483 541.96 141.53 541.96 140.23V59.11C541.96 56.0767 542.523 53.9533 543.65 52.74C544.777 51.5267 546.553 50.92 548.98 50.92C549.847 50.92 550.627 51.0067 551.32 51.18C552.013 51.3533 552.663 51.6567 553.27 52.09C553.877 52.5233 554.483 53.2167 555.09 54.17C555.783 55.0367 556.563 56.1633 557.43 57.55L595.52 122.29C597.253 125.237 598.77 128.53 600.07 132.17V54.3C600.07 53 600.503 52.0467 601.37 51.44C602.323 50.8333 603.363 50.53 604.49 50.53Z" fill="white"/>
<path d="M607.61 51.44L607.037 52.2592L607.055 52.2718L607.073 52.2837L607.61 51.44ZM607.35 141.79L606.617 141.11L607.35 141.79ZM599.68 143.35L599.923 142.38L599.923 142.38L599.68 143.35ZM597.6 142.44L597.019 143.254L597.044 143.272L597.07 143.288L597.6 142.44ZM595.65 140.49L594.831 141.063L594.849 141.09L594.869 141.115L595.65 140.49ZM593.57 136.98L594.454 136.512L594.443 136.492L594.432 136.473L593.57 136.98ZM555.48 72.24L554.618 72.747L554.618 72.7471L555.48 72.24ZM553.01 67.56L552.106 67.9881L552.106 67.9881L553.01 67.56ZM550.93 62.36L551.879 62.0438L549.93 62.36H550.93ZM549.5 143.09L548.963 142.246L548.945 142.258L548.927 142.271L549.5 143.09ZM543.26 143.09L542.687 143.909L542.705 143.922L542.723 143.934L543.26 143.09ZM543.65 52.74L542.917 52.0595L542.917 52.0595L543.65 52.74ZM551.32 51.18L551.563 50.2099L551.563 50.2099L551.32 51.18ZM555.09 54.17L554.246 54.7069L554.275 54.7525L554.309 54.7947L555.09 54.17ZM557.43 57.55L558.292 57.0429L558.285 57.0314L558.278 57.02L557.43 57.55ZM595.52 122.29L596.382 121.783L596.382 121.783L595.52 122.29ZM600.07 132.17L599.128 132.506L601.07 132.17H600.07ZM601.37 51.44L600.833 50.5963L600.815 50.6081L600.797 50.6208L601.37 51.44ZM604.49 51.53C605.529 51.53 606.362 51.7869 607.037 52.2592L608.183 50.6208C607.125 49.8797 605.877 49.53 604.49 49.53V51.53ZM607.073 52.2837C607.69 52.6765 608.04 53.2815 608.04 54.3H610.04C610.04 52.7185 609.436 51.4168 608.147 50.5963L607.073 52.2837ZM608.04 54.3V135.42H610.04V54.3H608.04ZM608.04 135.42C608.04 138.389 607.477 140.184 606.617 141.11L608.083 142.47C609.477 140.969 610.04 138.518 610.04 135.42H608.04ZM606.617 141.11C605.753 142.04 604.299 142.61 602.02 142.61V144.61C604.594 144.61 606.693 143.967 608.083 142.47L606.617 141.11ZM602.02 142.61C601.218 142.61 600.522 142.53 599.923 142.38L599.437 144.32C600.225 144.517 601.088 144.61 602.02 144.61V142.61ZM599.923 142.38C599.344 142.235 598.747 141.978 598.13 141.592L597.07 143.288C597.84 143.769 598.629 144.118 599.437 144.32L599.923 142.38ZM598.181 141.626C597.676 141.266 597.092 140.692 596.431 139.865L594.869 141.115C595.595 142.022 596.31 142.748 597.019 143.254L598.181 141.626ZM596.469 139.917C595.896 139.097 595.224 137.967 594.454 136.512L592.686 137.448C593.476 138.94 594.191 140.149 594.831 141.063L596.469 139.917ZM594.432 136.473L556.342 71.7329L554.618 72.7471L592.708 137.487L594.432 136.473ZM556.342 71.733C555.491 70.2869 554.682 68.7534 553.914 67.1319L552.106 67.9881C552.898 69.6599 553.735 71.2464 554.618 72.747L556.342 71.733ZM553.914 67.1319C553.152 65.5234 552.473 63.8276 551.879 62.0438L549.981 62.6762C550.6 64.5324 551.308 66.3032 552.106 67.9881L553.914 67.1319ZM549.93 62.36V140.23H551.93V62.36H549.93ZM549.93 140.23C549.93 141.249 549.58 141.853 548.963 142.246L550.037 143.934C551.326 143.113 551.93 141.811 551.93 140.23H549.93ZM548.927 142.271C548.252 142.743 547.419 143 546.38 143V145C547.767 145 549.015 144.65 550.073 143.909L548.927 142.271ZM546.38 143C545.444 143 544.59 142.751 543.797 142.246L542.723 143.934C543.836 144.642 545.063 145 546.38 145V143ZM543.833 142.271C543.296 141.895 542.96 141.288 542.96 140.23H540.96C540.96 141.772 541.49 143.072 542.687 143.909L543.833 142.271ZM542.96 140.23V59.11H540.96V140.23H542.96ZM542.96 59.11C542.96 56.1409 543.523 54.3461 544.383 53.4204L542.917 52.0595C541.523 53.5605 540.96 56.0125 540.96 59.11H542.96ZM544.383 53.4204C545.247 52.4901 546.701 51.92 548.98 51.92V49.92C546.406 49.92 544.307 50.5632 542.917 52.0595L544.383 53.4204ZM548.98 51.92C549.782 51.92 550.478 52.0003 551.077 52.1501L551.563 50.2099C550.775 50.013 549.912 49.92 548.98 49.92V51.92ZM551.077 52.1501C551.644 52.2917 552.18 52.5401 552.689 52.9037L553.851 51.2763C553.147 50.7732 552.383 50.4149 551.563 50.2099L551.077 52.1501ZM552.689 52.9037C553.152 53.2343 553.677 53.8115 554.246 54.7069L555.934 53.6331C555.29 52.6218 554.602 51.8124 553.851 51.2763L552.689 52.9037ZM554.309 54.7947C554.97 55.6206 555.727 56.7124 556.582 58.08L558.278 57.02C557.399 55.6143 556.597 54.4527 555.871 53.5453L554.309 54.7947ZM556.568 58.0571L594.658 122.797L596.382 121.783L558.292 57.0429L556.568 58.0571ZM594.658 122.797C596.356 125.683 597.847 128.918 599.128 132.506L601.012 131.834C599.693 128.142 598.151 124.79 596.382 121.783L594.658 122.797ZM601.07 132.17V54.3H599.07V132.17H601.07ZM601.07 54.3C601.07 53.2419 601.406 52.6351 601.943 52.2592L600.797 50.6208C599.6 51.4582 599.07 52.758 599.07 54.3H601.07ZM601.907 52.2837C602.7 51.7788 603.554 51.53 604.49 51.53V49.53C603.173 49.53 601.946 49.8879 600.833 50.5963L601.907 52.2837Z" fill="white"/>
<path d="M365.89 51.05C367.103 51.6567 367.927 52.48 368.36 53.52C368.793 54.4733 368.62 55.6 367.84 56.9L339.11 105.78V140.1C339.11 141.487 338.633 142.483 337.68 143.09C336.727 143.697 335.6 144 334.3 144C333.087 144 332.003 143.697 331.05 143.09C330.097 142.483 329.62 141.487 329.62 140.1V105.78L300.63 57.16C299.85 55.9467 299.59 54.82 299.85 53.78C300.197 52.74 300.977 51.8733 302.19 51.18C303.317 50.5733 304.487 50.4 305.7 50.66C306.913 50.8333 307.867 51.57 308.56 52.87L334.56 97.07L359.78 52.87C360.473 51.6567 361.34 50.92 362.38 50.66C363.507 50.4 364.677 50.53 365.89 51.05Z" fill="white"/>
<path d="M365.89 51.05L366.337 50.1556L366.311 50.1424L366.284 50.1309L365.89 51.05ZM368.36 53.52L367.437 53.9046L367.443 53.9193L367.45 53.9338L368.36 53.52ZM367.84 56.9L366.982 56.3855L366.978 56.3933L367.84 56.9ZM339.11 105.78L338.248 105.273L338.11 105.508V105.78H339.11ZM337.68 143.09L338.217 143.934L338.217 143.934L337.68 143.09ZM331.05 143.09L331.587 142.246L331.587 142.246L331.05 143.09ZM329.62 105.78H330.62V105.504L330.479 105.268L329.62 105.78ZM300.63 57.16L301.489 56.6479L301.48 56.6334L301.471 56.6192L300.63 57.16ZM299.85 53.78L298.901 53.4638L298.889 53.5002L298.88 53.5375L299.85 53.78ZM302.19 51.18L301.716 50.2995L301.705 50.3055L301.694 50.3118L302.19 51.18ZM305.7 50.66L305.49 51.6378L305.524 51.645L305.559 51.6499L305.7 50.66ZM308.56 52.87L307.678 53.3406L307.687 53.359L307.698 53.377L308.56 52.87ZM334.56 97.07L333.698 97.577L334.573 99.0647L335.429 97.5656L334.56 97.07ZM359.78 52.87L358.912 52.3739L358.911 52.3744L359.78 52.87ZM362.38 50.66L362.155 49.6856L362.146 49.6876L362.137 49.6899L362.38 50.66ZM365.443 51.9444C366.487 52.4667 367.114 53.1293 367.437 53.9046L369.283 53.1354C368.739 51.8307 367.719 50.8467 366.337 50.1556L365.443 51.9444ZM367.45 53.9338C367.693 54.4687 367.674 55.2327 366.983 56.3855L368.697 57.4145C369.566 55.9673 369.894 54.4779 369.27 53.1062L367.45 53.9338ZM366.978 56.3933L338.248 105.273L339.972 106.287L368.702 57.4067L366.978 56.3933ZM338.11 105.78V140.1H340.11V105.78H338.11ZM338.11 140.1C338.11 141.234 337.74 141.867 337.143 142.246L338.217 143.934C339.527 143.1 340.11 141.739 340.11 140.1H338.11ZM337.143 142.246C336.373 142.736 335.439 143 334.3 143V145C335.761 145 337.08 144.657 338.217 143.934L337.143 142.246ZM334.3 143C333.262 143 332.368 142.743 331.587 142.246L330.513 143.934C331.639 144.65 332.911 145 334.3 145V143ZM331.587 142.246C330.99 141.867 330.62 141.234 330.62 140.1H328.62C328.62 141.739 329.203 143.1 330.513 143.934L331.587 142.246ZM330.62 140.1V105.78H328.62V140.1H330.62ZM330.479 105.268L301.489 56.6479L299.771 57.6721L328.761 106.292L330.479 105.268ZM301.471 56.6192C300.787 55.5546 300.648 54.7118 300.82 54.0225L298.88 53.5375C298.532 54.9282 298.913 56.3387 299.789 57.7008L301.471 56.6192ZM300.799 54.0962C301.048 53.3483 301.626 52.6541 302.686 52.0482L301.694 50.3118C300.327 51.0925 299.345 52.1317 298.901 53.4638L300.799 54.0962ZM302.664 52.0605C303.589 51.5626 304.517 51.4292 305.49 51.6378L305.91 49.6822C304.456 49.3708 303.045 49.5841 301.716 50.2995L302.664 52.0605ZM305.559 51.6499C306.391 51.7688 307.1 52.2578 307.678 53.3406L309.442 52.3994C308.633 50.8822 307.436 49.8979 305.841 49.67L305.559 51.6499ZM307.698 53.377L333.698 97.577L335.422 96.563L309.422 52.363L307.698 53.377ZM335.429 97.5656L360.649 53.3656L358.911 52.3744L333.691 96.5744L335.429 97.5656ZM360.648 53.3661C361.249 52.3142 361.921 51.8056 362.623 51.6301L362.137 49.6899C360.759 50.0344 359.697 50.9992 358.912 52.3739L360.648 53.3661ZM362.605 51.6344C363.496 51.4287 364.449 51.5204 365.496 51.9691L366.284 50.1309C364.904 49.5395 363.517 49.3713 362.155 49.6856L362.605 51.6344Z" fill="white"/>
</g>
<defs>
<filter id="filter0_d_23_132" x="0.98999" y="31.96" width="820.77" height="130.72" filterUnits="userSpaceOnUse" color-interpolation-filters="sRGB">
<feFlood flood-opacity="0" result="BackgroundImageFix"/>
<feColorMatrix in="SourceAlpha" type="matrix" values="0 0 0 0 0 0 0 0 0 0 0 0 0 0 0 0 0 0 127 0" result="hardAlpha"/>
<feOffset dy="4"/>
<feGaussianBlur stdDeviation="2"/>
<feComposite in2="hardAlpha" operator="out"/>
<feColorMatrix type="matrix" values="0 0 0 0 0 0 0 0 0 0 0 0 0 0 0 0 0 0 0.25 0"/>
<feBlend mode="normal" in2="BackgroundImageFix" result="effect1_dropShadow_23_132"/>
<feBlend mode="normal" in="SourceGraphic" in2="effect1_dropShadow_23_132" result="shape"/>
</filter>
</defs>
</svg>
